<svg width="96" height="120" viewBox="0 0 96 120" fill="none" xmlns="http://www.w3.org/2000/svg">
  <path d="M48 6c-1.7 0-3.3 0.9-4.2 2.3L12 62.7c-0.6 0.9-0.9 2-0.9 3.1 0 2 1 3.9 2.7 5l8 5.3c2.2 1.4 5.2 0.8 6.7-1.5l19.5-29c0.2-0.3 0.6-0.3 0.8 0l19.5 29c1.5 2.3 4.5 3 6.7 1.5l8-5.3c1.7-1.1 2.7-3 2.7-5 0-1.1-0.3-2.2-0.9-3.1L52.2 8.3C51.3 6.9 49.7 6 48 6z" fill="#b49b7d"/>
  <path d="M42.5 76.8c-0.8 0-1.5 0.2-2.1 0.7-1.9 1.6-2.6 4-1.7 6 1 2.2 3.6 3.2 6 2.3l7-2.5c1.9-0.7 3.3-2.2 3.6-4.1 0.4-2.3-0.9-4.6-3.1-5.4l-7-2.5c-0.7-0.3-1.5-0.4-2.3-0.4h-0.4z" fill="#8f7052"/>
  <path d="M48 97.5c-1.6 0-3 0.7-4 1.9-0.9 1.2-1.2 2.7-0.9 4.2l1.5 6.5c0.3 1.6 1.6 2.8 3.3 2.8s3-1.2 3.3-2.8l1.5-6.5c0.3-1.5 0-3-0.9-4.2-1-1.2-2.4-1.9-4-1.9h0.2z" fill="#8f7052"/>
  <path d="M49.6 48.5c-2 0-3.8 1.1-4.8 2.8l-6 10.3c-0.7 1.3-0.8 2.8-0.3 4.2 0.7 1.9 2.5 3.1 4.4 3.1h12.3c2 0 3.8-1.2 4.5-3 0.5-1.4 0.4-3-0.3-4.2l-6.2-10.7c-1-1.7-2.8-2.7-4.6-2.7h-0.1z" fill="#c3ac8d"/>
</svg>
